<svg width="34" height="34" viewBox="0 0 34 34" fill="none" xmlns="http://www.w3.org/2000/svg">
<path fill-rule="evenodd" clip-rule="evenodd" d="M23.6683 4.66502C23.9339 4.93069 24.0831 5.29096 24.0831 5.66661C24.0831 6.04226 23.9339 6.40253 23.6683 6.66819L13.3365 16.9999L23.6683 27.3317C23.8036 27.4624 23.9115 27.6187 23.9858 27.7915C24.06 27.9644 24.0991 28.1503 24.1007 28.3384C24.1024 28.5265 24.0665 28.713 23.9953 28.8871C23.924 29.0612 23.8189 29.2194 23.6858 29.3524C23.5528 29.4854 23.3946 29.5906 23.2205 29.6619C23.0464 29.7331 22.8599 29.7689 22.6718 29.7673C22.4837 29.7657 22.2978 29.7266 22.125 29.6523C21.9521 29.5781 21.7958 29.4702 21.6651 29.3349L10.3318 18.0015C10.0662 17.7359 9.917 17.3756 9.917 16.9999C9.917 16.6243 10.0662 16.264 10.3318 15.9984L21.6651 4.66502C21.9308 4.39944 22.291 4.25024 22.6667 4.25024C23.0423 4.25024 23.4026 4.39944 23.6683 4.66502Z" fill="#FFCC00"/>
</svg>
