<svg width="34" height="34" viewBox="0 0 34 34" fill="none" xmlns="http://www.w3.org/2000/svg">
<path d="M19.0542 3.58843C18.4793 3.10396 17.7518 2.83826 17 2.83826C16.2482 2.83826 15.5207 3.10396 14.9458 3.58843L5.38333 11.6563C5.0284 11.9555 4.74308 12.3285 4.54733 12.7494C4.35157 13.1703 4.2501 13.6288 4.25 14.093V27.2751C4.25 28.6436 5.36067 29.7543 6.72917 29.7543H10.9792C11.6367 29.7543 12.2673 29.4931 12.7322 29.0281C13.1971 28.5632 13.4583 27.9326 13.4583 27.2751V21.6042C13.4583 20.6409 14.2262 19.8588 15.1824 19.8333H18.8176C19.2791 19.8455 19.7176 20.0375 20.0396 20.3683C20.3617 20.699 20.5418 21.1425 20.5417 21.6042V27.2751C20.5417 28.6436 21.6523 29.7543 23.0208 29.7543H27.2708C27.9283 29.7543 28.5589 29.4931 29.0239 29.0281C29.4888 28.5632 29.75 27.9326 29.75 27.2751V14.0916C29.7499 13.6274 29.6484 13.1689 29.4527 12.748C29.2569 12.3271 28.9716 11.9541 28.6167 11.6549L19.0542 3.58843Z" fill="#FFCC00"/>
</svg>
