<svg width="29" height="15" viewBox="0 0 29 15" fill="none" xmlns="http://www.w3.org/2000/svg">
<path fill-rule="evenodd" clip-rule="evenodd" d="M28.8928 13.1376V1.23864C28.8158 0.607336 28.3384 0.103886 27.7301 0H1.1705C0.508243 0.111878 0 0.70323 0 1.42244V12.9538C0 13.745 0.623753 14.3923 1.38612 14.3923H27.5067C28.2229 14.3923 28.8004 13.8488 28.8928 13.1376Z" fill="#F5C518"/>
<path d="M3.90424 2.78088H6.09122V11.5073H3.90424V2.78088ZM10.7424 2.78088L10.2342 6.85642L9.91845 4.64285C9.82604 3.93163 9.74133 3.30831 9.65662 2.78088H6.82278V11.5073H8.73255L8.74025 5.74564L9.54881 11.5073H10.9118L11.6742 5.61778L11.6819 11.5073H13.5917V2.78088H10.7424ZM19.2978 5.60979V8.91018C19.2978 9.69332 19.2593 10.2128 19.1823 10.4765C19.113 10.7402 18.9898 10.9479 18.8127 11.0918C18.6356 11.2436 18.42 11.3475 18.1581 11.4035C17.8963 11.4594 17.5036 11.4914 16.9799 11.4914H14.3309V2.78088H15.9635C17.0184 2.78088 17.6268 2.82883 18.0041 2.93272C18.3738 3.0366 18.6587 3.19643 18.8512 3.42818C19.0437 3.65992 19.1669 3.91564 19.2131 4.19534C19.2131 4.21132 19.2208 4.2273 19.2208 4.24328C19.267 4.507 19.2978 4.9625 19.2978 5.60979ZM16.5256 9.99699C16.8413 9.99699 17.0338 9.93306 17.1032 9.79721C17.1725 9.66935 17.211 9.30974 17.211 8.72638V5.34608C17.211 4.95451 17.1956 4.69879 17.1725 4.58691C17.1494 4.47503 17.0955 4.39512 17.003 4.33918C16.9568 4.30721 16.8875 4.29123 16.7951 4.27525C16.772 4.27525 16.7489 4.26726 16.7181 4.26726C16.6565 4.25927 16.5949 4.25927 16.5179 4.25927V9.99699H16.5256ZM24.9886 7.05621V9.50153C24.9886 10.021 24.9578 10.4125 24.8885 10.6683C24.8192 10.924 24.6575 11.1477 24.4111 11.3315C24.157 11.5233 23.8643 11.6112 23.5178 11.6112C23.2714 11.6112 22.948 11.5553 22.7323 11.4434C22.5167 11.3315 22.3242 11.1637 22.1471 10.94L22.0085 11.4993H20.0448V2.78088H22.1471V5.61778C22.3242 5.41001 22.5167 5.25018 22.7323 5.1463C22.948 5.04241 23.2714 4.99446 23.5178 4.99446H23.5717C23.8412 5.00245 24.0722 5.04241 24.2725 5.13031C24.4881 5.22621 24.6498 5.35407 24.7576 5.52188C24.8654 5.6897 24.9347 5.85752 24.9578 6.01734C24.9809 6.18516 24.9886 6.52878 24.9886 7.05621ZM22.2164 10.1968C22.2626 10.3007 22.3473 10.3566 22.4782 10.3566C22.6091 10.3566 22.7862 10.3007 22.8247 10.1888C22.8632 10.0769 22.8863 9.81319 22.8863 9.38965V7.1521C22.8863 6.7845 22.8632 6.54477 22.817 6.43289C22.7708 6.32101 22.5937 6.26507 22.4628 6.26507H22.4397C22.3242 6.27306 22.2472 6.32101 22.2087 6.40892C22.1702 6.50481 22.1471 6.75254 22.1471 7.1521V9.45358C22.1471 9.83716 22.1702 10.0849 22.2164 10.1968Z" fill="black"/>
</svg>
