<svg width="27" height="27" viewBox="0 0 27 27" fill="none" xmlns="http://www.w3.org/2000/svg">
<circle cx="13.5" cy="13.5" r="13.5" fill="#2E2D2D"/>
<path fill-rule="evenodd" clip-rule="evenodd" d="M9.67393 21.8261C9.49466 21.6467 9.39395 21.4036 9.39395 21.15C9.39395 20.8964 9.49466 20.6533 9.67393 20.4739L16.6479 13.5L9.67393 6.52607C9.5826 6.43786 9.50975 6.33234 9.45963 6.21568C9.40952 6.09901 9.38314 5.97353 9.38204 5.84656C9.38093 5.71959 9.40513 5.59367 9.45321 5.47615C9.50129 5.35863 9.57229 5.25187 9.66208 5.16208C9.75186 5.0723 9.85863 5.00129 9.97615 4.95321C10.0937 4.90513 10.2196 4.88094 10.3466 4.88204C10.4735 4.88314 10.599 4.90952 10.7157 4.95964C10.8323 5.00975 10.9379 5.0826 11.0261 5.17393L18.6761 12.8239C18.8553 13.0033 18.956 13.2464 18.956 13.5C18.956 13.7536 18.8553 13.9967 18.6761 14.1761L11.0261 21.8261C10.8467 22.0053 10.6036 22.106 10.35 22.106C10.0964 22.106 9.85326 22.0053 9.67393 21.8261Z" fill="#FFCC00"/>
</svg>
