<svg width="24" height="24" viewBox="0 0 24 24" fill="none" xmlns="http://www.w3.org/2000/svg">
<path d="M8.42188 19.8359H15.5781C16.75 19.8359 17.3281 19.25 17.3281 17.9766V12.5938C17.3281 11.4844 16.8828 10.8984 15.9766 10.7734V8.88281C15.9766 5.9375 14.0469 4.51562 12 4.51562C9.95312 4.51562 8.02344 5.9375 8.02344 8.88281V10.7734C7.11719 10.8984 6.67188 11.4844 6.67188 12.5938V17.9766C6.67188 19.25 7.25 19.8359 8.42188 19.8359ZM9.28125 8.71875C9.28125 6.75781 10.5391 5.71875 12 5.71875C13.4609 5.71875 14.7188 6.75781 14.7188 8.71875V10.75H9.28125V8.71875ZM8.46875 18.6641C8.10938 18.6641 7.92969 18.5 7.92969 18.0625V12.5156C7.92969 12.0781 8.10938 11.9219 8.46875 11.9219H15.5391C15.8984 11.9219 16.0703 12.0781 16.0703 12.5156V18.0625C16.0703 18.5 15.8984 18.6641 15.5391 18.6641H8.46875Z" fill="#FFCC00"/>
</svg>
