<svg width="24" height="24" viewBox="0 0 24 24" fill="none" xmlns="http://www.w3.org/2000/svg">
<path d="M12 12.5C13.8594 12.5 15.375 10.8438 15.375 8.82812C15.375 6.82812 13.8672 5.25781 12 5.25781C10.1484 5.25781 8.625 6.85938 8.625 8.84375C8.63281 10.8516 10.1406 12.5 12 12.5ZM12 11.3203C10.8594 11.3203 9.88281 10.2266 9.88281 8.84375C9.88281 7.48438 10.8438 6.4375 12 6.4375C13.1641 6.4375 14.1172 7.46875 14.1172 8.82812C14.1172 10.2109 13.1484 11.3203 12 11.3203ZM7.08594 19.7266H16.9062C18.2031 19.7266 18.8203 19.3359 18.8203 18.4766C18.8203 16.4297 16.2344 13.4688 12 13.4688C7.75781 13.4688 5.17188 16.4297 5.17188 18.4766C5.17188 19.3359 5.78906 19.7266 7.08594 19.7266ZM6.71875 18.5469C6.51562 18.5469 6.42969 18.4922 6.42969 18.3281C6.42969 17.0469 8.41406 14.6484 12 14.6484C15.5781 14.6484 17.5625 17.0469 17.5625 18.3281C17.5625 18.4922 17.4844 18.5469 17.2812 18.5469H6.71875Z" fill="#FFCC00"/>
</svg>
