<svg width="34" height="34" viewBox="0 0 34 34" fill="none" xmlns="http://www.w3.org/2000/svg">
<path d="M8.5 8.78333C8.5 7.19667 8.5 6.40333 8.80883 5.797C9.08047 5.2639 9.5139 4.83047 10.047 4.55883C10.6533 4.25 11.4467 4.25 13.0333 4.25H20.9667C22.5533 4.25 23.3467 4.25 23.953 4.55883C24.4861 4.83047 24.9195 5.2639 25.1912 5.797C25.5 6.40333 25.5 7.19667 25.5 8.78333V27.6321C25.5 28.3206 25.5 28.6648 25.3569 28.8533C25.2951 28.9352 25.2162 29.0027 25.1257 29.0512C25.0352 29.0996 24.9352 29.1278 24.8327 29.1338C24.5962 29.1479 24.31 28.9567 23.7377 28.5756L17 24.0833L10.2623 28.5742C9.69 28.9567 9.40383 29.1479 9.16583 29.1338C9.0636 29.1276 8.96393 29.0993 8.87368 29.0509C8.78343 29.0024 8.70476 28.935 8.64308 28.8533C8.5 28.6648 8.5 28.3206 8.5 27.6321V8.78333Z" fill="#D9D9D9" stroke="#D9D9D9" stroke-width="2.25" stroke-linecap="round" stroke-linejoin="round"/>
</svg>
