<svg width="37" height="37" viewBox="0 0 37 37" fill="none" xmlns="http://www.w3.org/2000/svg">
<rect width="37" height="37" rx="18.5" fill="#FFCC00"/>
<g clip-path="url(#clip0_338_361)">
<path fill-rule="evenodd" clip-rule="evenodd" d="M11 18C11 14.134 14.134 11 18 11C21.866 11 25 14.134 25 18C25 19.886 24.2541 21.5978 23.0413 22.8565C23.0071 22.8828 22.9742 22.9116 22.9429 22.9429C22.9116 22.9742 22.8828 23.0071 22.8565 23.0413C21.5978 24.2541 19.886 25 18 25C14.134 25 11 21.866 11 18ZM23.6177 25.0319C22.078 26.2635 20.125 27 18 27C13.0294 27 9 22.9706 9 18C9 13.0294 13.0294 9 18 9C22.9706 9 27 13.0294 27 18C27 20.125 26.2635 22.078 25.0319 23.6177L28.7071 27.2929C29.0977 27.6834 29.0977 28.3166 28.7071 28.7071C28.3166 29.0976 27.6834 29.0976 27.2929 28.7071L23.6177 25.0319Z" fill="white"/>
</g>
<defs>
<clipPath id="clip0_338_361">
<rect width="21" height="21" fill="white" transform="translate(7 7)"/>
</clipPath>
</defs>
</svg>
